Coordinates
version=1
nRows=5
nColumns=63
inDegrees=yes

Units are S.I. units (second, meters, Newtons, ...)
If the header above contains a line with 'inDegrees', this indicates whether rotational values are in degrees (yes) or radians (no).

endheader
time	pelvis_tilt	pelvis_list	pelvis_rotation	pelvis_tx	pelvis_ty	pelvis_tz	hip_flexion_r	hip_adduction_r	hip_rotation_r	knee_angle_r	knee_angle_r_beta	ankle_angle_r	subtalar_angle_r	mtp_angle_r	hip_flexion_l	hip_adduction_l	hip_rotation_l	knee_angle_l	knee_angle_l_beta	ankle_angle_l	subtalar_angle_l	mtp_angle_l	L5_S1_Flex_Ext	L5_S1_Lat_Bending	L5_S1_axial_rotation	L4_L5_Flex_Ext	L4_L5_Lat_Bending	L4_L5_axial_rotation	L3_L4_Flex_Ext	L3_L4_Lat_Bending	L3_L4_axial_rotation	L2_L3_Flex_Ext	L2_L3_Lat_Bending	L2_L3_axial_rotation	L1_L2_Flex_Ext	L1_L2_Lat_Bending	L1_L2_axial_rotation	L1_T12_Flex_Ext	L1_T12_Lat_Bending	L1_T12_axial_rotation	Abs_r3	Abs_r2	Abs_r1	Abs_t1	Abs_t2	neck_flexion	neck_bending	neck_rotation	arm_flex_r	arm_add_r	arm_rot_r	elbow_flex_r	pro_sup_r	wrist_flex_r	wrist_dev_r	arm_flex_l	arm_add_l	arm_rot_l	elbow_flex_l	pro_sup_l	wrist_flex_l	wrist_dev_l
      9.75000000	    -33.60416779	      2.23049099	    -84.73682872	      1.68642446	      0.81770819	      0.06086883	     21.89385532	      0.42720682	      8.23284682	     32.76946828	      0.57193512	      1.90162679	     18.76606258	      0.00000000	     27.18582791	     -0.32886327	    -13.99784842	     41.59379357	      0.72594865	      8.93543036	    -19.47182531	      0.00000000	     -0.13753632	     -0.03493463	      0.16012976	     -0.25541870	     -0.04646306	      0.17013787	     -0.22595842	     -0.08494007	      0.17013787	     -0.15719026	     -0.08494007	      0.14011354	     -0.12771623	     -0.07123870	      0.13010543	     -0.07858825	     -0.05411375	      0.12009732	     -0.98240817	     -0.39518756	      0.89059369	      0.00000000	      0.00000000	      0.00000000	      0.00000000	     -0.00000000	     16.91236359	     21.24344296	   -293.70197213	     71.47311471	     83.25975954	      0.00000000	      5.00000014	   -170.95280182	   -169.77932620	    213.25754630	     58.30808321	     78.95272379	      0.00000000	      5.00000014
      9.76666670	    -33.63754981	      2.17341230	    -84.70445859	      1.68586242	      0.81780052	      0.06074661	     21.84369415	      0.48235090	      8.14392125	     32.75436326	      0.57167148	      1.86659921	     18.80283886	      0.00000000	     27.20916157	     -0.41228083	    -13.93765295	     41.72231091	      0.72819170	      8.92548203	    -19.46432969	      0.00000000	     -0.13840654	     -0.01430202	      0.10637636	     -0.25703479	     -0.01902169	      0.11302488	     -0.22738811	     -0.03477394	      0.11302488	     -0.15818484	     -0.03477394	      0.09307931	     -0.12852431	     -0.02916469	      0.08643079	     -0.07908550	     -0.02215383	      0.07978227	     -0.98862408	     -0.16178735	      0.59163338	      0.00000000	      0.00000000	      0.00000000	      0.00000000	     -0.00000000	     17.01172319	     20.18167680	   -293.53040482	     72.76860077	     81.47931620	      0.00000000	      5.00000014	   -169.45564193	   -167.85631577	    218.55196011	     57.00121729	     78.05950653	      0.00000000	      5.00000014
      9.78333330	    -33.55649934	      2.09441262	    -84.73860226	      1.68517165	      0.81786438	      0.06065286	     21.81705439	      0.44440789	      8.13737801	     32.86101498	      0.57353291	      1.94356364	     18.84111438	      0.00000000	     27.14585925	     -0.40645162	    -13.98026749	     41.77015715	      0.72902677	      8.90066128	    -19.46562377	      0.00000000	     -0.13782895	     -0.00520877	      0.18974669	     -0.25596215	     -0.00692766	      0.20160586	     -0.22643919	     -0.01266459	      0.20160586	     -0.15752471	     -0.01266459	      0.16602835	     -0.12798797	     -0.01062171	      0.15416918	     -0.07875546	     -0.00806838	      0.14231002	     -0.98449843	     -0.05892259	      1.05531416	      0.00000000	      0.00000000	      0.00000000	      0.00000000	     -0.00000000	     16.38429026	     18.36303233	   -295.02608649	     75.31714237	     82.16558672	      0.00000000	      5.00000014	   -168.94846070	   -167.31944888	    216.79221301	     54.41123065	     79.92597839	      0.00000000	      5.00000014
      9.80000000	    -33.60422326	      2.06386146	    -84.67500230	      1.68450364	      0.81756646	      0.06040341	     21.83551228	      0.47878892	      7.96321035	     32.91439909	      0.57446464	      1.90360805	     18.90492502	      0.00000000	     27.22089912	     -0.48316192	    -13.87919262	     41.91321354	      0.73152358	      8.85627234	    -19.47617829	      0.00000000	     -0.12240672	      0.02540108	      0.30917730	     -0.22732153	      0.03378344	      0.32850089	     -0.20110201	      0.06176019	      0.32850089	     -0.13989864	      0.06176019	      0.27053014	     -0.11366688	      0.05179789	      0.25120656	     -0.06994320	      0.03934628	      0.23188298	     -0.87433898	      0.28734213	      1.71955141	      0.00000000	      0.00000000	      0.00000000	      0.00000000	     -0.00000000	     15.80145671	     15.61367122	   -295.89654357	     79.17013406	     82.02739264	      0.00000000	      5.00000014	   -168.68094341	   -167.42628760	    211.55501919	     50.62860102	     79.86282604	      0.00000000	      5.00000014
      9.81666670	    -33.66379692	      2.10062679	    -84.74732847	      1.68369107	      0.81710999	      0.06043762	     21.94629447	      0.57223259	      7.94380213	     33.03810943	      0.57662379	      1.97611006	     18.91473745	      0.00000000	     27.32212796	     -0.62804833	    -13.92817960	     42.05372662	      0.73397599	      8.88035911	    -19.46706022	      0.00000000	     -0.11613692	      0.07973353	     -0.02765841	     -0.21567787	      0.10604560	     -0.02938706	     -0.19080135	      0.19386411	     -0.02938706	     -0.13273289	      0.19386411	     -0.02420111	     -0.10784474	      0.16259262	     -0.02247246	     -0.06636064	      0.12350724	     -0.02074381	     -0.82955441	      0.90196166	     -0.15382778	      0.00000000	      0.00000000	      0.00000000	      0.00000000	     -0.00000000	     15.42641240	     13.34384869	   -295.27577429	     81.63996308	     82.00332916	      0.00000000	      5.00000014	   -172.77374992	   -170.53977538	    185.49489560	     49.80731459	     81.79553239	      0.00000000	      5.00000014
